<svg xmlns="http://www.w3.org/2000/svg" width="1544" height="300" viewBox="0 0 1544 300">
  <defs>
    <linearGradient id="a" x1="0%" y1="50%" y2="50%">
      <stop offset="0%" stop-color="#D6871A"/>
      <stop offset="100%" stop-color="#E7B722"/>
    </linearGradient>
  </defs>
  <g fill="none" fill-rule="evenodd">
    <rect width="409" height="300" fill="url(#a)" rx="30"/>
    <path fill="#FFF" d="M76.7 204.3c0 2.5-1.3 3.7-3.8 3.7h-3.2c-2.5 0-3.7-1.2-3.7-3.7V92.7c0-2.5 1.2-3.7 3.7-3.7H73c2.4 0 3.7 1.2 3.7 3.7v111.6zm120.4 0c0 2.5-1.3 3.7-3.8 3.7h-2.9c-2.5 0-3.7-1.2-3.7-3.7v-47.5c0-9-2.2-16.1-6.6-21.3-4.5-5.2-11-7.7-19.4-7.7-8.2 0-14.7 2.5-19.6 7.6a29.8 29.8 0 0 0-7.3 21.4v47.5c0 2.5-1.2 3.7-3.7 3.7h-3c-2.4 0-3.7-1.2-3.7-3.7v-81c0-2.5 1.3-3.7 3.8-3.7h2.9c2.5 0 3.7 1.2 3.7 3.7v8c3-4 6.8-7.2 11-9.7a35 35 0 0 1 17.6-3.7c5.8 0 10.8 1 15.1 2.9a30 30 0 0 1 10.8 8c2.9 3.4 5 7.4 6.5 12 1.5 4.7 2.3 9.7 2.3 15.2v48.3zm59.3-25.4a28 28 0 0 0 3 14.2c2 3.4 5.5 5 10.6 5h9.2c2.5 0 3.7 1.3 3.7 3.8v2.4c0 2.5-1.2 3.7-3.7 3.7h-10c-4.5 0-8.2-.7-11.2-2.2-3-1.5-5.4-3.5-7.1-6-1.8-2.6-3-5.6-3.8-9-.7-3.5-1-7.2-1-11.2v-50.1h-13.3c-2.5 0-3.8-1.3-3.8-3.8v-2.4c0-2.5 1.3-3.7 3.8-3.7H246V91c0-2.5 1.3-3.7 3.8-3.7h2.8c2.5 0 3.8 1.2 3.8 3.7v28.6h21c2.6 0 3.8 1.2 3.8 3.7v2.4c0 2.5-1.2 3.8-3.7 3.8h-21.1v49.4zm71.6 25.4c0 2.5-1.3 3.7-3.8 3.7h-2.9c-2.5 0-3.7-1.2-3.7-3.7V91c0-2.5 1.2-3.7 3.7-3.7h3c2.4 0 3.6 1.2 3.6 3.7v113.3z"/>
    <path fill="#000" d="M534.7 197.8h58.6c2.6 0 4 1.3 4 4v2.5c0 2.5-1.4 3.7-4 3.7h-65.6c-2.5 0-3.7-1.2-3.7-3.7V92.7c0-2.5 1.2-3.7 3.7-3.7h3.3c2.4 0 3.7 1.2 3.7 3.7v105.1zM644.2 97.7c0 1.1-.4 2-1.1 2.7a4 4 0 0 1-2.8 1h-6.5c-2.5 0-3.7-1.2-3.7-3.7v-6.5c0-1.1.3-2 1-2.8.7-.7 1.6-1.1 2.7-1.1h6.5a3.8 3.8 0 0 1 3.9 4v6.4zm-1.9 106.6c0 2.5-1.2 3.7-3.7 3.7h-3c-2.4 0-3.7-1.2-3.7-3.7v-81c0-2.5 1.3-3.7 3.8-3.7h2.9c2.5 0 3.7 1.2 3.7 3.7v81zm96-20c0-2.3-.4-4.3-1.4-5.9-1-1.6-2.5-3-4.8-4.3a39.5 39.5 0 0 0-8.8-3.6l-13.5-3.5a63.8 63.8 0 0 1-13.3-4.3c-3.4-1.6-6-3.5-8-5.6-1.9-2.1-3.2-4.4-3.9-6.8-.7-2.5-1-5-1-7.8a22.5 22.5 0 0 1 7.6-16.7c2.5-2.3 5.7-4.2 9.5-5.7s8.2-2.2 13.3-2.2c5.6 0 10.3.7 14.2 2.2a34 34 0 0 1 9.6 5.3c2.5 2 4.4 4 5.6 6.2 1.2 2 1.8 3.8 2 5a3 3 0 0 1-1.1 2.7 4 4 0 0 1-2.7 1H739c-1.6 0-2.8-.7-3.7-2.2l-2.9-3.9c-1-1.2-2.3-2.3-4-3.3-1.5-1-3.5-1.7-5.8-2.3-2.3-.6-5.2-.8-8.6-.8-6.8 0-11.8 1.3-15 4.1-3.4 2.8-5 6.3-5 10.7 0 1.9.3 3.6 1 5 .7 1.5 2 3 4 4.2 1.8 1.3 4.5 2.5 7.8 3.7 3.4 1.1 7.7 2.3 13.2 3.5 5.4 1.3 10 2.7 13.7 4.3a31 31 0 0 1 8.8 5.4c2.2 2 3.8 4.4 4.8 7a24.8 24.8 0 0 1-.8 18.4c-1.5 3-3.6 5.7-6.5 8a32 32 0 0 1-10.5 5.6c-4.2 1.3-9 2-14.6 2-6 0-11.1-.8-15.3-2.4a38.7 38.7 0 0 1-10.4-5.6 24.5 24.5 0 0 1-6-6.5c-1.3-2.2-2-4-2.1-5-.2-1.3.2-2.2 1.1-2.9 1-.6 1.8-.9 2.6-.9h2.6c.6 0 1.2.1 1.7.3.5.3 1.2.9 2 2 1 1.4 2.2 2.8 3.6 4.2a21 21 0 0 0 4.8 3.5c1.9 1 4 1.9 6.5 2.5 2.5.6 5.5 1 8.9 1 6.8 0 12.4-1.4 16.8-4s6.6-6.4 6.6-11.5zm66.2-5.4a28 28 0 0 0 3 14.2c2 3.4 5.5 5 10.6 5h9.2c2.5 0 3.7 1.3 3.7 3.8v2.4c0 2.5-1.2 3.7-3.7 3.7h-10c-4.5 0-8.2-.7-11.2-2.2-3-1.5-5.4-3.5-7.1-6-1.8-2.6-3-5.6-3.8-9-.7-3.5-1-7.2-1-11.2v-50.1h-13.4c-2.4 0-3.7-1.3-3.7-3.8v-2.4c0-2.5 1.3-3.7 3.8-3.7H794V91c0-2.5 1.3-3.7 3.8-3.7h2.8c2.5 0 3.8 1.2 3.8 3.7v28.6h21c2.6 0 3.8 1.2 3.8 3.7v2.4c0 2.5-1.2 3.8-3.7 3.8h-21.1v49.4zM997.9 89c2.6 0 4 1.3 4 4v2.5c0 2.5-1.4 3.7-4 3.7h-58.6v45.7h55.2c2.6 0 4 1.3 4 4v2.5c0 2.5-1.4 3.7-4 3.7h-55.2v49.2c0 2.5-1.3 3.7-4 3.7h-3c-2.5 0-3.7-1.2-3.7-3.7V92.9c0-2.6 1.2-3.9 3.7-3.9H998zm74 28.9c6.1 0 11.5 1 16.1 3a32.7 32.7 0 0 1 18.8 20.5 53.5 53.5 0 0 1 3 18.5 86.2 86.2 0 0 1-.2 11 53.5 53.5 0 0 1-2.8 15.3 32.7 32.7 0 0 1-18.8 20.5c-4.6 2-10 3-16.1 3-6.1 0-11.5-1-16.2-3a32.7 32.7 0 0 1-18.8-20.5 48.2 48.2 0 0 1-2.8-18.4 92 92 0 0 1 0-11.1c.2-5.5 1-10.6 2.8-15.3a32.7 32.7 0 0 1 18.9-20.5c4.6-2 10-3 16-3zm27.4 39.6c-.4-9.7-3-17.1-8-22.2a26 26 0 0 0-19.4-7.5 26 26 0 0 0-19.4 7.5c-5 5-7.6 12.5-8 22.2a97.1 97.1 0 0 0 0 12.6c.4 9.7 3 17.1 8 22.2a26 26 0 0 0 19.4 7.5 26 26 0 0 0 19.4-7.5c5-5 7.6-12.5 8-22.2a97.1 97.1 0 0 0 0-12.6zm61.2-26.2c4-7.8 11.7-11.7 23-11.7h6.4c2.5 0 3.7 1.2 3.7 3.7v2.4c0 2.5-1.2 3.8-3.7 3.8h-7.3c-6.8 0-12.2 2-16.2 6-4 3.9-6 9.3-6 16v52.8c0 1-.3 2-1 2.7a4 4 0 0 1-2.9 1h-2.7c-2.5 0-3.7-1.2-3.7-3.7v-80.8c0-1.1.3-2 1-2.8.7-.7 1.6-1.1 2.7-1.1h2.8a3.8 3.8 0 0 1 3.9 4v7.7zm76.1-2c2.9-3.6 6.2-6.4 10-8.4 3.9-2 8.7-3 14.3-3 6.5 0 12 1.4 16.5 4 4.6 2.8 8.1 6.8 10.7 12a29 29 0 0 1 11.5-11.7c5-2.9 10.9-4.3 17.4-4.3 4.6 0 8.8.8 12.6 2.4a28 28 0 0 1 10 7c2.9 3 5.1 6.8 6.8 11.4 1.6 4.6 2.4 10 2.4 16v49.6c0 2.5-1.2 3.7-3.7 3.7h-3c-2.4 0-3.6-1.2-3.6-3.7v-47.8c0-5.6-.7-10.2-2-13.9a23 23 0 0 0-5-8.8 18 18 0 0 0-7.4-4.7 28 28 0 0 0-8.8-1.3c-2.6 0-5.2.4-7.9 1.3a19 19 0 0 0-7.3 4.7 24 24 0 0 0-5.3 8.8c-1.4 3.7-2 8.3-2 13.9v47.8c0 2.5-1.3 3.7-3.8 3.7h-3c-2.4 0-3.7-1.2-3.7-3.7v-47.8c0-5.6-.6-10.2-2-13.9a24.8 24.8 0 0 0-5.3-8.8 18 18 0 0 0-7.4-4.7 24.4 24.4 0 0 0-16.3 0 19 19 0 0 0-7.3 4.7c-2.2 2.2-4 5.1-5.3 8.8-1.4 3.6-2 8.2-2 13.7v48c0 2.5-1.3 3.7-3.8 3.7h-3c-2.4 0-3.7-1.2-3.7-3.7v-81c0-2.5 1.3-3.7 3.8-3.7h2.9c2.5 0 3.7 1.2 3.7 3.7v6zm213.5 78.7c-2.5 0-3.7-1.2-3.7-3.7v-8a27 27 0 0 1-10 9 39.9 39.9 0 0 1-20 4.4 34.6 34.6 0 0 1-21.4-7.3c-2.8-2.3-5-5-6.7-8-1.6-3-2.4-6.4-2.4-10 0-3.9.8-7.3 2.4-10.4 1.7-3 4-5.8 7-8 2.9-2.4 6.4-4.3 10.6-5.9 4-1.5 8.7-2.6 13.6-3.3l26.9-3.7v-6c0-6-1.8-10.8-5.5-14.2-3.7-3.4-9.6-5.1-17.6-5.1-6.4 0-11.3 1.2-14.7 3.6-3.5 2.5-5.7 5-6.6 8a6 6 0 0 1-1.6 2.7c-.6.5-1.4.8-2.5.8h-2.3c-1 0-2-.4-2.7-1.1a3.6 3.6 0 0 1-1-2.7c0-1.5.5-3.5 1.6-5.9 1.2-2.4 3-4.7 5.6-7a34.4 34.4 0 0 1 24.2-8.3c6.7 0 12.2 1 16.6 2.7a24.5 24.5 0 0 1 15.5 16.7c.9 3.5 1.4 7 1.4 10.4v56.6c0 2.5-1.3 3.7-3.8 3.7h-2.9zm-32-8.2c3.8 0 7.4-.6 10.9-2a25.4 25.4 0 0 0 15.2-15.6 40 40 0 0 0 2.2-14v-5.8l-22 3.1c-18.7 2.6-28.2 8.6-28.2 18 0 2.9.7 5.3 2 7.3s3 3.8 5 5.1c2 1.4 4.4 2.4 7 3 2.6.6 5.2 1 7.8 1zm98.7-20.9a28 28 0 0 0 3 14.2c2 3.4 5.5 5 10.6 5h9.2c2.5 0 3.7 1.3 3.7 3.8v2.4c0 2.5-1.2 3.7-3.7 3.7h-10c-4.5 0-8.2-.7-11.2-2.2-3-1.5-5.4-3.5-7.1-6-1.8-2.6-3-5.6-3.8-9-.7-3.5-1-7.2-1-11.2v-50.1h-13.3c-2.5 0-3.8-1.3-3.8-3.8v-2.4c0-2.5 1.3-3.7 3.8-3.7h13.2V91c0-2.5 1.3-3.7 3.8-3.7h2.8c2.5 0 3.8 1.2 3.8 3.7v28.6h21c2.6 0 3.8 1.2 3.8 3.7v2.4c0 2.5-1.2 3.8-3.7 3.8h-21.1v49.4z"/>
  </g>
</svg>
